<?xml version="1.0" encoding="UTF-8"?>
<svg width="160px" height="160px" viewBox="0 0 160 160" version="1.1" xmlns="http://www.w3.org/2000/svg" xmlns:xlink="http://www.w3.org/1999/xlink">
    <title>icon-import</title>
    <g id="icon-import" stroke="none" stroke-width="1" fill="none" fill-rule="evenodd">
        <g id="print" transform="translate(14.000000, 21.000000)" fill="#ffffff" fill-rule="nonzero">
            <path d="M133,111.205349 L133,78.5263158 C132.907779,75.4590164 130.351928,73 127.203225,73 C124.054523,73 121.498672,75.4590164 121.406451,78.5263158 L121.406451,106.610871 L11.5935491,106.610871 L11.5935491,78.5263158 C11.5013277,75.4590164 8.94547713,73 5.79677457,73 C2.64807202,73 0.0922214137,75.4590164 0,78.5263158 L0,111.205349 C0,114.945643 3.10917909,118 6.91660603,118 L126.096568,118 C129.890821,118 133,114.945643 133,111.205349 Z" id="路径"></path>
            <path d="M70.613262,81.3099324 L92.3037754,59.6981517 C94.5654082,57.4447282 94.5654082,53.7549119 92.3037754,51.5014885 C90.0421426,49.248065 86.3388842,49.248065 84.0772514,51.5014885 L72.7426356,62.7949617 L72.7426356,6.21997592 C72.7426356,2.793718 69.925514,0 66.5,0 C63.0612601,0 60.2573644,2.80689591 60.2573644,6.21997592 L60.2573644,62.7817838 L48.9227486,51.4883106 C46.6611158,49.2348871 42.9578574,49.2348871 40.6962246,51.4883106 C38.4345918,53.741734 38.4345918,57.4315503 40.6962246,59.6849737 L62.386738,81.3099324 C64.6483708,83.5633559 68.3516292,83.5633559 70.613262,81.3099324 Z" id="路径"></path>
        </g>
    </g>
</svg>