<?xml version="1.0" encoding="UTF-8"?>
<svg width="48px" height="48px" viewBox="0 0 48 48" version="1.1" xmlns="http://www.w3.org/2000/svg" xmlns:xlink="http://www.w3.org/1999/xlink">
    <title>icon-edit</title>
    <g id="icon-edit" stroke="none" stroke-width="1" fill="none" fill-rule="evenodd">
        <g transform="translate(3.000000, 3.000000)" fill="#515158" fill-rule="nonzero" id="形状">
            <path d="M41.5700787,5.25724116 C41.6974628,5.5451777 41.8009624,5.88110365 41.8805774,6.26501903 C41.9601925,6.6489344 42,7.04884626 42,7.46475461 C42,7.88066296 41.9203849,8.2965713 41.7611548,8.71247961 C41.6019247,9.12838793 41.3471566,9.52829979 40.9968504,9.9122152 C40.6146981,10.2961306 40.2723534,10.6320565 39.9698162,10.9199931 C39.667279,11.2079296 39.4045494,11.4638732 39.1816273,11.6878238 C38.9268591,11.9437674 38.688014,12.1677181 38.4650918,12.3596758 L29.5322835,3.38565373 C29.9144357,3.0337313 30.3682415,2.60982474 30.8937008,2.11393404 C31.4191601,1.61804335 31.8570429,1.22612973 32.2073491,0.938193191 C32.6531934,0.586270763 33.1149607,0.338325415 33.5926509,0.194357146 C34.0703412,0.0503888772 34.54007,-0.0135970131 35.0018373,0.00239947511 C35.4636046,0.0183959633 35.9094489,0.0903800977 36.3393701,0.218351878 C36.7692913,0.346323659 37.1434821,0.490291928 37.4619423,0.650256685 C38.1307087,1.00217911 38.8711286,1.61804338 39.6832021,2.49784948 C40.4952757,3.37765558 41.1242345,4.29745285 41.5700788,5.2572413 L41.5700787,5.25724116 Z M4.35800533,28.6760795 C4.54908146,28.4841218 4.99492572,28.0282223 5.69553813,27.308381 C6.39615054,26.5885396 7.27191607,25.7007353 8.32283472,24.644968 L11.8099738,21.1417401 L15.6792652,17.2545969 L25.9496064,6.93687092 L34.8824147,15.9588824 L24.6120735,26.2766084 L20.7905512,30.1637516 C19.5167104,31.4114766 18.3702538,32.5552245 17.3511811,33.5949954 C16.3321085,34.6347662 15.488189,35.4905775 14.8194226,36.1624295 C14.1506562,36.8342814 13.752581,37.2181968 13.6251969,37.3141756 C13.3067367,37.6021122 12.9405074,37.9060452 12.5265092,38.2259747 C12.1125109,38.5459041 11.6825896,38.8018477 11.2367454,38.9938054 C10.7909011,39.2177561 10.1380577,39.4896961 9.27821524,39.8096256 C8.41837275,40.1295551 7.5187227,40.4414864 6.5792651,40.7454194 C5.63980749,41.0493524 4.74811895,41.3132942 3.90419949,41.5372449 C3.06028002,41.7611955 2.43132114,41.9051637 2.01732284,41.9691497 C1.15748032,42.0651285 0.584251978,41.9371567 0.297637805,41.5852343 C0.011023632,41.2333118 -0.068591423,40.6414423 0.0587926401,39.8096256 C0.122484672,39.3617243 0.27375327,38.7138671 0.512598435,37.866054 C0.7514436,37.0182409 1.00621176,36.1384348 1.27690291,35.2266357 C1.54759406,34.3148367 1.81032371,33.4750218 2.06509187,32.7071911 C2.31986003,31.9393603 2.52685914,31.4114767 2.68608922,31.1235401 C2.87716535,30.6756388 3.09212598,30.2677287 3.33097111,29.8998098 C3.56981625,29.5318909 3.91216095,29.1239808 4.35800524,28.6760795 L4.35800533,28.6760795 Z"></path>
        </g>
    </g>
</svg>