<?xml version="1.0" standalone="no"?><!DOCTYPE svg PUBLIC "-//W3C//DTD SVG 1.1//EN" "http://www.w3.org/Graphics/SVG/1.1/DTD/svg11.dtd"><svg t="1689227264053" class="icon" viewBox="0 0 1024 1024" version="1.1" xmlns="http://www.w3.org/2000/svg" p-id="1467" xmlns:xlink="http://www.w3.org/1999/xlink" width="200" height="200"><path d="M587.093333 128c23.68 0 34.816 0.853333 47.701334 3.84 13.098667 2.986667 24.96 7.936 36.352 15.018667 11.178667 7.04 19.712 14.293333 36.394666 31.018666l95.914667 95.914667c16.725333 16.682667 23.978667 25.173333 31.018667 36.394667 7.082667 11.392 12.032 23.253333 15.018666 36.352 2.218667 9.642667 3.285333 18.346667 3.669334 32.042666L853.333333 394.24v349.738667c0 41.130667-4.266667 63.018667-16.426666 85.845333-11.434667 21.333333-28.416 38.4-49.792 49.792-22.826667 12.202667-44.714667 16.426667-85.845334 16.426667H322.730667c-41.130667 0-63.018667-4.266667-85.845334-16.426667a120.192 120.192 0 0 1-49.792-49.792C174.933333 806.954667 170.666667 785.066667 170.666667 743.936V280.064c0-41.130667 4.266667-63.018667 16.426666-85.845333 11.434667-21.333333 28.416-38.4 49.792-49.792C259.712 132.266667 281.6 128 322.730667 128h264.405333zM315.52 213.376l-13.013333 0.426667c-13.013333 0.768-19.157333 2.56-25.344 5.888a34.901333 34.901333 0 0 0-14.762667 14.762666c-4.266667 7.978667-6.016 15.786667-6.314667 38.4v478.293334l0.426667 13.056c0.768 13.013333 2.56 19.157333 5.888 25.344a34.901333 34.901333 0 0 0 14.762667 14.762666c7.978667 4.266667 15.786667 6.016 38.4 6.314667h392.96l13.056-0.426667c13.013333-0.768 19.157333-2.56 25.344-5.888a34.901333 34.901333 0 0 0 14.762666-14.762666c4.266667-7.978667 6.016-15.786667 6.314667-38.4L767.914667 426.666667H640a85.333333 85.333333 0 0 1-85.12-78.933334L554.666667 341.333333V213.376H315.477333zM640 640a42.666667 42.666667 0 0 1 0 85.333333H384a42.666667 42.666667 0 0 1 0-85.333333h256z m0-128a42.666667 42.666667 0 0 1 0 85.333333H384a42.666667 42.666667 0 0 1 0-85.333333h256z m110.208-170.666667L640 231.125333V341.333333h110.208z" fill="#000000" p-id="1468"></path></svg>