<?xml version="1.0" encoding="UTF-8"?>
<svg width="48px" height="48px" viewBox="0 0 48 48" version="1.1" xmlns="http://www.w3.org/2000/svg" xmlns:xlink="http://www.w3.org/1999/xlink">
    <title>icon-delete</title>
    <g id="icon-delete" stroke="none" stroke-width="1" fill="none" fill-rule="evenodd">
        <path d="M44.1666667,11 C45.175,11 46,11.9 46,13 C46,14.1 45.175,15 44.1666667,15 L41,15 L41,40.5289474 C41,43.5463158 38.5539232,46 35.5459098,46 L13.4540902,46 C10.4479132,46 8,43.5463158 8,40.5289474 L8,15 L3.83333335,15 C2.825,15 2,14.1 2,13 C2,11.9 2.825,11 3.83333335,11 L13,11 L13,7.40000001 C13,4.42279999 15.4676667,2 18.5,2 L29.5,2 C32.5323333,2 35,4.42279999 35,7.40000001 L35,11 L44.1666667,11 Z M37,15 L11,15 L11,41.1893333 C11.0010258,42.1889104 11.8086843,42.9989711 12.8052971,43 L35.194703,43 C36.1922692,43 37,42.188 37,41.1893333 L37,15 Z M19,20 C20.1,20 21,20.85 21,21.8888889 L21,35.1111111 C21,36.15 20.1,37 19,37 C17.9,37 17,36.15 17,35.1111111 L17,21.8888889 C17,20.85 17.9,20 19,20 Z M30,20 C31.1,20 32,20.85 32,21.8888889 L32,35.1111111 C32,36.15 31.1,37 30,37 C28.9,37 28,36.15 28,35.1111111 L28,21.8888889 C28,20.85 28.9,20 30,20 Z M29.5,5.59999999 L18.5,5.59999999 C17.4898333,5.59999999 16.6666667,6.40819998 16.6666667,7.40000001 L16.6666667,11 L31.3333333,11 L31.3333333,7.40000001 C31.3333333,6.40820002 30.512,5.59999999 29.5,5.59999999 Z" id="形状结合" fill="#a90976" fill-rule="nonzero"></path>
    </g>
</svg>