<?xml version="1.0" encoding="UTF-8"?>
<svg width="160px" height="160px" viewBox="0 0 160 160" version="1.1" xmlns="http://www.w3.org/2000/svg" xmlns:xlink="http://www.w3.org/1999/xlink">
    <title>画板</title>
    <g id="画板" stroke="none" stroke-width="1" fill="none" fill-rule="evenodd">
        <g id="通知" transform="translate(12.000000, 11.000000)" fill="#b660bc" fill-rule="nonzero">
            <path d="M68.5774011,0 C77.9687382,0 86.8182674,1.80602637 95.1259887,5.4180791 C103.43371,9.03013183 110.683616,13.9322034 116.875706,20.1242938 C123.067797,26.3163842 127.969868,33.56629 131.581921,41.8740113 C135.193974,50.1817326 137,59.0312618 137,68.4225989 C137,77.9171375 135.193974,86.8182674 131.581921,95.1259887 C127.969868,103.43371 123.067797,110.683616 116.875706,116.875706 C110.683616,123.067797 103.43371,127.969868 95.1259887,131.581921 C86.8182674,135.193974 77.9687382,137 68.5774011,137 C59.0828625,137 50.1817326,135.193974 41.8740113,131.581921 C33.56629,127.969868 26.3163842,123.067797 20.1242938,116.875706 C13.9322034,110.683616 9.03013183,103.43371 5.4180791,95.1259887 C1.80602637,86.8182674 0,77.9171375 0,68.4225989 C0,59.0312618 1.80602637,50.1817326 5.4180791,41.8740113 C9.03013183,33.56629 13.9322034,26.3163842 20.1242938,20.1242938 C26.3163842,13.9322034 33.56629,9.03013183 41.8740113,5.4180791 C50.1817326,1.80602637 59.0828625,0 68.5774011,0 L68.5774011,0 Z M68.5774011,127.557062 C76.7303202,127.557062 84.393032,126.00904 91.5655367,122.912994 C98.7380414,119.816949 105.007533,115.585687 110.374011,110.219209 C115.74049,104.852731 119.971751,98.5832392 123.067797,91.4107345 C126.163842,84.2382298 127.711864,76.5755179 127.711864,68.4225989 C127.711864,60.2696798 126.163842,52.606968 123.067797,45.4344633 C119.971751,38.2619586 115.74049,31.992467 110.374011,26.6259887 C105.007533,21.2595104 98.7380414,17.0282486 91.5655367,13.9322034 C84.393032,10.8361582 76.7303202,9.28813559 68.5774011,9.28813559 C60.3212806,9.28813559 52.606968,10.8361582 45.4344633,13.9322034 C38.2619586,17.0282486 31.992467,21.2595104 26.6259887,26.6259887 C21.2595104,31.992467 17.0282486,38.2619586 13.9322034,45.4344633 C10.8361582,52.606968 9.28813559,60.2696798 9.28813559,68.4225989 C9.28813559,76.5755179 10.8361582,84.2382298 13.9322034,91.4107345 C17.0282486,98.5832392 21.2595104,104.852731 26.6259887,110.219209 C31.992467,115.585687 38.2619586,119.816949 45.4344633,122.912994 C52.606968,126.00904 60.3212806,127.557062 68.5774011,127.557062 Z M68.5774011,18.8858757 C75.2854991,18.8858757 81.580791,20.1500942 87.4632768,22.6785311 C93.3457627,25.206968 98.505838,28.6900188 102.943503,33.1276836 C107.381168,37.5653484 110.864218,42.7254237 113.392655,48.6079096 C115.921092,54.4903955 117.185311,60.7856874 117.185311,67.4937853 C117.185311,74.2018832 115.921092,80.5229755 113.392655,86.4570621 C110.864218,92.3911488 107.381168,97.5770245 102.943503,102.014689 C98.505838,106.452354 93.3457627,109.935405 87.4632768,112.463842 C81.580791,114.992279 75.2854991,116.256497 68.5774011,116.256497 C61.8693032,116.256497 55.5482109,114.992279 49.6141243,112.463842 C43.6800377,109.935405 38.494162,106.452354 34.0564972,102.014689 C29.6188324,97.5770245 26.1357815,92.3911488 23.6073446,86.4570621 C21.0789077,80.5229755 19.8146893,74.2018832 19.8146893,67.4937853 C19.8146893,60.7856874 21.0789077,54.4903955 23.6073446,48.6079096 C26.1357815,42.7254237 29.6188324,37.5653484 34.0564972,33.1276836 C38.494162,28.6900188 43.6800377,25.206968 49.6141243,22.6785311 C55.5482109,20.1500942 61.8693032,18.8858757 68.5774011,18.8858757 Z" id="形状"></path>
        </g>
    </g>
</svg>